<svg xmlns="http://www.w3.org/2000/svg" viewBox="0 0 225.72 225.54"><defs><style>.cls-1{fill:none;}.cls-2{fill:#01aef0;}.cls-3{fill:#fff;}</style></defs><title>Recurso 1</title><g id="Capa_2" data-name="Capa 2"><g id="Capa_2-2" data-name="Capa 2"><rect class="cls-1" y="0.54" width="225" height="225"/><rect class="cls-2" x="0.72" width="225" height="225"/><polygon class="cls-3" points="144.18 178.06 135.06 179.02 109.22 131.5 118.98 130.78 144.18 178.06"/><path class="cls-2" d="M125.94,69.88s-7.24-4.25-15.5-3.23-23.62,0-23.62,0l-.48,111.36,48.72,1-25.84-44.88V131.5l9.76-.72L109.72,99.1"/><path class="cls-3" d="M62.82,178.06v-132h46.4s20.8-1.2,29,5.28,13.44,9.84,16.32,18.24,4.8,12.72,3.84,22.08-.24,12.72-4.32,19.2-5.28,9.12-10.32,12.48-7,4.56-7.92,5.28,26.4,49.44,26.4,49.44h-9.12l-43.34-79h8.78l5.52,9.84s11.52-15.6,9.6-27.36-13.5-14.75-15.14-15-31.66.12-31.66.12l-.48,111.36Z"/><path class="cls-2" d="M116.82,95.26l7.68,15.12A26.4,26.4,0,0,0,135.06,89c0-14.4-9.12-19.14-9.12-19.14Z"/><path class="cls-2" d="M135.78,128.62s18-12.67,21.43-25.53.62-30.17-4-36.6-18.42-20-32.37-20.2,41.32-8.13,41.32-8.13l34.5,80.64Z"/><path class="cls-2" d="M158.28,88.8S157,67.63,147.5,60,182,49.2,182,49.2L166.2,90.13Z"/><path class="cls-2" d="M135.78,128.62s8.55-4.18,17-16.6,4.9-30.42,4.9-30.42l30.16-1.2-19.68,59Z"/><path class="cls-2" d="M155.93,75.28s-4.36-14.72-14.78-20.76S171,40.32,171,40.32l14.64,37Z"/></g></g></svg>